<?xml version="1.0" encoding="UTF-8"?>
<svg width="131px" height="20px" viewBox="0 0 131 20" version="1.1" xmlns="http://www.w3.org/2000/svg" xmlns:xlink="http://www.w3.org/1999/xlink">
    <title>Logo</title>
    <g id="Symbols" stroke="none" stroke-width="1" fill="none" fill-rule="evenodd">
        <g id="01-Navigation/Navbar/1440-Light" transform="translate(-90.000000, -31.000000)" fill="#1C0976">
            <g id="Logo" transform="translate(90.000000, 31.000000)">
                <path d="M47.753469,16.3099291 L47.753469,7.37358156 L45.1692877,13.0977305 L43.6706753,13.0977305 L41.0874191,7.39524823 L41.0874191,16.3099291 L38.8066605,16.3099291 L38.8066605,3.24539007 L41.4125809,3.24539007 L44.4523589,9.69007092 L47.4486586,3.24539007 L50.03284,3.24539007 L50.03284,16.3099291 L47.7525439,16.3099291 M59.4209066,6.1943617 L57.6623497,11.3501064 L61.1581869,11.3501064 L59.4209066,6.1943617 Z M62.8297872,16.3094681 L61.8746531,13.5352128 L56.9454209,13.5352128 L55.9902868,16.3094681 L53.5582794,16.3094681 L58.0966698,3.24492908 L60.7456059,3.24492908 L65.2617946,16.3094681 L62.8302498,16.3094681 L62.8297872,16.3094681 Z M75.8182239,6.30361702 C75.8182239,6.30361702 75.8182239,6.17269504 75.7964847,6.15102837 C75.66605,5.91039007 75.3186864,5.47336879 75.1012951,5.45170213 L71.1711378,5.45170213 L71.1711378,8.94695035 L74.993062,8.94695035 C75.1882516,8.94695035 75.6225717,8.51039007 75.7964847,8.20475177 C75.7964847,8.20475177 75.8182239,8.16049645 75.8182239,8.11716312 L75.8182239,6.30361702 Z M76.1651249,16.3094681 L73.2557817,11.1315957 L71.1711378,11.1315957 L71.1711378,16.3099291 L68.8913043,16.3099291 L68.8913043,3.26705674 L74.993062,3.26705674 C75.513876,3.26705674 76.1216466,3.44223404 76.5564292,3.74787234 C76.8603145,3.96638298 77.5115634,4.66524823 77.706753,4.94921986 C77.9676226,5.34244681 78.0980574,5.82326241 78.0980574,6.28195035 L78.0980574,8.16049645 C78.1023242,8.63347663 77.9661829,9.09715575 77.706753,9.49322695 C77.5115634,9.77719858 76.8603145,10.4327305 76.5564292,10.6512411 C76.3825162,10.7821631 76.0134135,10.9352128 75.7530065,10.9785461 L78.8580019,16.3094681 L76.1651249,16.3094681 L76.1651249,16.3094681 Z M84.673913,13.1198582 C84.673913,13.1198582 84.673913,13.1853191 84.6956522,13.2074468 C84.9560592,13.6006738 85.4125809,14.0810284 85.6512488,14.2124113 C85.6947271,14.234078 85.7377428,14.234078 85.7599445,14.234078 L86.259482,14.234078 L85.9357077,13.4688298 L88.019889,12.7699645 L88.6475486,14.234078 L88.9296947,14.234078 C88.9296947,14.234078 88.9944496,14.234078 89.0383904,14.2119504 C89.2770583,14.0810284 89.6896392,13.6006738 89.9500463,13.2069858 C89.9722479,13.1636525 89.9722479,13.1198582 89.9722479,13.1198582 L89.9722479,6.36907801 C89.9722479,6.36907801 89.9722479,6.30361702 89.9500463,6.28195035 C89.6896392,5.8887234 89.2770583,5.49549645 89.0388529,5.36457447 C88.9949121,5.34244681 88.9514339,5.34244681 88.9296947,5.34244681 L85.7599445,5.34244681 C85.7599445,5.34244681 85.672988,5.34244681 85.6512488,5.36457447 C85.4121184,5.49549645 84.9560592,5.8887234 84.6956522,6.28195035 C84.673913,6.32574468 84.673913,6.36953901 84.673913,6.36953901 L84.673913,13.1198582 L84.673913,13.1198582 Z M89.4727105,16.4187234 L90.3191489,18.3193972 L87.9093432,18.3193972 L87.1059204,16.4187234 L85.672988,16.4187234 C85.1951896,16.4187234 84.673913,16.2435461 84.327012,16.0254965 C83.8704903,15.7631915 83.0023127,14.8236879 82.7414431,14.4525887 C82.4810361,14.0593617 82.3940796,13.6223404 82.3940796,13.2074468 L82.3940796,6.36907801 C82.3940796,5.9541844 82.4810361,5.51716312 82.7414431,5.12439716 C83.0023127,4.75283688 83.8704903,3.81333333 84.3265495,3.55102837 C84.673913,3.33251773 85.1951896,3.15780142 85.6725254,3.15780142 L88.973173,3.15780142 C89.4292322,3.15780142 89.9722479,3.33297872 90.3191489,3.55102837 C90.7756707,3.81333333 91.6221092,4.75283688 91.9047179,5.12393617 C92.1651249,5.51716312 92.2516189,5.9541844 92.2516189,6.36907801 L92.2516189,13.2074468 C92.2516189,13.6223404 92.1651249,14.0593617 91.9047179,14.4525887 C91.6225717,14.8236879 90.7756707,15.7631915 90.3196115,16.0254965 C89.993987,16.2006738 89.7765957,16.3311348 89.4509713,16.3749291 L89.4727105,16.4187234 Z M96.8237743,16.3099291 L96.8237743,3.24539007 L104.987974,3.24539007 L104.987974,5.43003546 L99.1036078,5.43003546 L99.1036078,8.72890071 L104.640148,8.72890071 L104.640148,10.9135461 L99.1036078,10.9135461 L99.1036078,14.1248227 L104.987974,14.1248227 L104.987974,16.3099291 L96.8237743,16.3099291 M114.169288,5.43003546 L114.169288,16.3094681 L111.888992,16.3094681 L111.888992,5.43003546 L108.371878,5.43003546 L108.371878,3.24492908 L117.687327,3.24492908 L117.687327,5.43003546 L114.16975,5.43003546 M124.362627,6.1943617 L122.60407,11.3501064 L126.099907,11.3501064 L124.362627,6.1943617 Z M127.771508,16.3094681 L126.816374,13.5352128 L121.887142,13.5352128 L120.932007,16.3094681 L118.5,16.3094681 L123.037928,3.24492908 L125.687327,3.24492908 L130.203515,16.3094681 L127.771508,16.3094681 Z" id="main-navigation__logo-text-marqeta"></path>
                <polyline id="main-navigation__logo-chevron" points="0.231267345 0.121702128 6.74283071 9.77719858 0.231267345 19.433156 3.87326549 19.433156 10.3848289 9.77719858 5.48011101 2.53546099 9.12210916 2.53546099 14.0074006 9.77765957 7.51526364 19.433156 18.4412581 19.433156 24.933395 9.77719858 20.0730805 2.53546099 23.7150786 2.53546099 28.5753932 9.77765957 22.0832562 19.432695 25.7053654 19.432695 32.2169288 9.77673759 25.7053654 0.121702128 14.7969473 0.121702128 21.2909343 9.77719858 16.4061055 17.0198582 12.7835338 17.0198582 17.6493987 9.77765957 11.1567993 0.121702128 0.231267345 0.121702128"></polyline>
            </g>
        </g>
    </g>
</svg>